<svg xmlns="http://www.w3.org/2000/svg" viewBox="0 0 32 32" fill="currentColor"><path fill="#aaa" d="M27.95 11.8c.18.36-.19.46-.5.36-1.24-.44-4.3-.55-5.67.77-.35.32-.56 1.14-.05 1.56.52.43-.52.4-.8.28-1.57-.72-1.47-1.48-2.52-2.26a4.58 4.58 0 0 0-3.78-.87c-.45.12-.75-.18-.16-.52 2.26-1.26 4.91-.33 5.77 1 .1.16.3.17.44.02.77-.8 3.13-1.79 5.34-1.79.82 0 1.4.4 1.93 1.45z" class="st0"/><path d="M8.08 21.46H4.1c-.33 0 .14-.75 1.53-1.66 5.77-3.76 12.3-4.72 16-3.93.51.1.19.24 0 .25-1.53.08-8.08-.12-13.14 5.12-.16.17-.26.22-.4.22z" class="st1"/><path d="M17.63 21.65h-3.64c-.92 0 2.7-4.25 7.6-4.98.38-.06.36.06.1.22-1.67 1.07-3.72 2.13-3.72 4.54-.01.23-.2.22-.34.22z" class="st1"/></svg>
