<svg xmlns="http://www.w3.org/2000/svg" viewBox="0 0 500 493.87"><path d="M107.84 493.87C49.02 493.87 0 446.07 0 387.26V106.62C0 47.79 49.02 0 107.84 0h284.32C452.2 0 500 47.8 500 106.62v280.64c0 58.82-47.8 106.61-107.84 106.61z" style="fill:#c48c31;fill-rule:nonzero;stroke:none;stroke-width:34.58606339"/><path d="M71.08 139.7h95.59c17.15 0 30.63 4.9 41.66 13.49 11.03 8.57 15.94 22.06 15.94 40.44 0 9.8-2.46 19.6-7.36 26.96-4.9 8.58-12.25 13.48-20.83 18.38 12.25 3.68 20.83 9.8 26.96 19.6 6.13 9.81 9.8 20.84 9.8 35.55 0 8.58-1.22 17.15-3.67 24.5-3.68 6.13-7.36 13.49-13.48 18.39-6.13 4.9-13.48 9.8-22.06 12.25-9.8 3.68-19.61 4.9-33.09 4.9H71.08Zm34.31 89.47h56.37c7.36 0 14.71-2.45 19.61-7.36 6.13-4.9 8.58-12.25 8.58-22.06 0-11.02-2.45-18.38-7.35-22.05-4.9-4.9-12.26-7.36-20.84-7.36H105.4zm0 94.36h60.05c11.03 0 18.38-2.45 24.51-8.58 6.13-6.13 8.58-14.7 8.58-25.73 0-9.8-2.45-18.39-8.58-23.29-6.13-6.13-13.48-8.58-24.5-8.58h-60.06zM263.48 139.7h93.14c22.06 0 37.99 4.9 49.02 15.94 11.03 9.8 15.93 24.5 15.93 42.89 0 9.8-1.23 18.38-3.68 24.5-3.67 7.36-6.12 12.26-9.8 15.94-3.68 4.9-7.35 7.35-11.03 9.8-3.68 1.23-6.13 2.46-7.35 3.68 2.45 0 6.12 1.23 8.57 3.68a19.06 19.06 0 0 1 9.8 7.35c2.46 3.68 4.91 7.35 7.36 13.48a88.05 88.05 0 0 1 2.45 20.83c0 12.26 1.23 24.51 2.46 34.32 2.45 9.8 4.9 17.15 8.57 22.06h-36.76c-2.45-4.9-3.68-9.8-4.9-14.7V322.3c0-9.8-1.23-18.38-1.23-24.5a64.55 64.55 0 0 0-6.12-18.39c-3.68-4.9-7.36-7.35-12.26-9.8-4.9-2.45-11.03-3.68-19.6-3.68H297.8v88.24h-34.32V139.7Zm34.31 98.05h56.38c11.03 0 19.6-2.46 24.5-8.58 6.13-6.13 8.59-14.7 8.59-25.74 0-7.35-1.23-12.25-2.46-17.16-2.45-3.67-4.9-7.35-7.35-9.8-3.68-2.45-7.35-3.68-11.03-4.9-4.9 0-8.58-1.23-13.48-1.23h-55.15v67.4z" style="fill:#fff;fill-rule:nonzero;stroke:none;stroke-width:34.58606339"/></svg>
