<svg xmlns="http://www.w3.org/2000/svg" fill="currentColor" viewBox="4 4.8 24 22.4"><path d="M26.6 5.8a1.08 1.08 0 0 0-1.07-1H6.48a1.09 1.09 0 0 0-1.08 1L4 14.94v10.22h1.4v2.04H8.5v-2.04H23.5v2.04h3.11v-2.04H28V14.95Zm-16.37-.51h11.54v1.47H10.23Zm-4.6 2.3h9.86v7.24H4.52Zm4.57 13a1.01 1.01 0 1 1-1.02-1 1.01 1.01 0 0 1 1.02 1.01zm-2.27 0a1.01 1.01 0 1 1-1.01-1 1.01 1.01 0 0 1 1.01 1.01zm18.86 3.06H5.2v-.76H26.8Zm-5-3.05a1.01 1.01 0 1 1 1.02 1.01 1.01 1.01 0 0 1-1.01-1.01zm2.27 0a1.01 1.01 0 1 1 1.02 1.01 1.01 1.01 0 0 1-1.02-1.01zm-7.56-5.77V7.59h9.87l1.1 7.24z"/></svg>
