<svg xmlns="http://www.w3.org/2000/svg" viewBox="0 0 500 493.9"><path fill="#008659" d="M107.8 493.9C49 493.9 0 446.1 0 387.3V106.6C0 47.8 49 0 107.8 0h284.3C452.2 0 500 47.8 500 106.6v280.6c0 58.8-47.8 106.6-107.8 106.6H107.8z"/><path fill="#fff" d="M345.6 341.9h-23.3l-6.1-23.3c-19.9 21.6-34.5 28.3-62.5 28.2-142.4 0-131.1-246.1 33.1-209.6 36.6 13.7 53.5 37.7 56.4 66.2h-35.5c-7.4-44.4-60.4-46.7-82.1-34.3-46.1 22.4-45.2 120.2 0 142.2 20.3 12.3 54.9 9.1 71.1-7.4 10.2-10.2 15.9-30.4 15.9-41.7h-55.1v-27h88.2v106.7z"/></svg>
