<svg xmlns="http://www.w3.org/2000/svg" viewBox="0 0 98.5 98.5" version="1.1"><g transform="translate(-31 -29.4)"><path d="m88.5 69 22.2-9.9s-7.5 11.5-6.8 21.5c.7 10 8.9 19.2 8.9 19.2L88.3 87.1s-2.1-10.2.2-18.1z" fill="#49b84f"/><path d="M61.2 48s9.9 6.9 18.6 6.8c8.8-.1 18.4-5.6 19.8-7.4C101.1 45.7 88.4 71 88.4 71l-17-.3z" fill="#007dc4"/><path d="M117.6 29.4 129.5 41s-29 32.2-41.5 30c.8-13.9 16-29.4 29.6-41.6z" fill="#fec230"/><path d="m118 127.4 11.1-11.3S107.2 91.5 94 88c-12.3-3.3-21.8-1.2-21.8-1.2L61 109.6s12.4-10.7 27.1-6.4c13.8 5.6 29.9 24.2 29.9 24.2z" fill="#007dc4"/><path d="m31.1 41.3 11.4-11.9S68.1 50.8 71 64.8c2.9 14 1.2 22.1 1.2 22.1l-24 12.8s8.3-11 8.3-21.8c-.1-14.5-11.3-23.2-25.4-36.6Z" fill="#49b84f"/><path d="M42.9 127.9 31 116.3s28.7-31.7 41.2-29.5c-.8 13.9-15.7 28.9-29.3 41.1z" fill="#fec230"/></g></svg>
