<svg xmlns="http://www.w3.org/2000/svg" viewBox="0 0 500 493.87"><path d="M107.84 493.87C49.02 493.87 0 446.07 0 387.25V106.62C0 47.79 49.02 0 107.84 0h284.32C452.2 0 500 47.8 500 106.62v280.63c0 58.83-47.8 106.62-107.84 106.62z" style="fill:#e3002c;fill-rule:nonzero;stroke:none;stroke-width:34.58606339"/><path d="M163 144.6h98.03c23.28 0 40.44 4.91 51.47 14.71 11.03 9.8 17.16 23.29 17.16 40.44 0 9.8-1.23 18.39-3.68 24.51-3.68 6.13-7.35 11.03-11.03 15.94-3.68 3.67-7.35 6.12-11.03 8.57-3.67 1.23-6.13 2.46-8.58 2.46v1.22c3.68 0 6.13 1.23 9.8 2.45 3.68 1.23 7.36 3.68 11.04 7.36 2.45 3.67 4.9 7.35 7.35 13.48a85.33 85.33 0 0 1 2.45 19.6c0 12.26 1.23 23.29 3.68 33.1 1.22 9.8 3.67 17.15 8.58 20.82h-39.22c-2.45-4.9-4.9-9.8-4.9-14.7 0-4.9-1.23-9.8-1.23-15.93 0-8.58 0-17.16-1.22-23.29-1.22-7.35-3.68-12.25-6.13-17.15-3.67-4.9-7.35-7.36-13.48-9.8-4.9-2.46-11.03-3.68-19.6-3.68h-53.93v84.55H163V144.61Zm35.53 93.15h60.05c11.03 0 19.6-2.46 25.73-8.58 6.13-4.9 9.8-13.48 9.8-24.51 0-6.13-1.22-11.03-3.67-14.7-1.22-4.91-4.9-7.36-7.35-9.81-3.68-2.45-7.35-3.68-12.26-4.9-3.67-1.23-8.57-1.23-13.48-1.23h-58.82v63.73z" style="fill:#fff;fill-rule:nonzero;stroke:none;stroke-width:34.58606339"/></svg>
