<svg xmlns="http://www.w3.org/2000/svg" viewBox="4 6.2 24 20" fill="currentColor"><path fill="none" d="M28 26.4c0 .89-.72 1.6-1.6 1.6H5.6A1.6 1.6 0 0 1 4 26.4V5.6C4 4.72 4.71 4 5.6 4h20.8c.88 0 1.6.72 1.6 1.6v20.8Z"/><path d="M26.22 6.4a42.78 42.78 0 0 0-5.58-.08c-2.9.2-4.23.8-5.34 1.24 1.36-.14 3.25-.1 3.83-.05.7.05 1.95.28 1.12 1.1-.66.65-3.1 2.2-3.1 2.2a9.46 9.46 0 0 1-3.38 1.31c-.73 0-3.12.14-3.33-.24-1.54 1.44-3.95 3.86-4.57 5.76 0 .03 0 .04-.02.06l-.06.27c-.03.17-.02.4.14.6.22.26 1.06.8 3.88-.01C14.5 17.16 21.1 14.58 23 12.7c.1-.12.17-.44.25-.59a.44.44 0 0 1 .25-.18l2.72-.7V6.4ZM27.98 14.4v.5L4.02 26.12V24.6z"/><path d="m27.98 11.98-1.42.45s-.47 1.16-.51 1.23c-.05.11-.1.17-.24.24l-.56.23a155.2 155.2 0 0 1-13.32 4.95c-2.38.7-3.94.68-4.35.03l.16.4c.02.05.12.16.25.25l-3.97 1.27v1.02l5.16-1.93c.75.05 1.83-.07 3.35-.57 1.18-.4 9.62-3.6 15.45-6.13v-1.44z"/><path d="M26.22 11.66s-4.92 1.39-9.08 2.69c-2.92.94-5.1 1.74-5.81 2.36-2.96 2.64-5.36 2.39-5.36 1.34 0-.62.59-1.78.55-1.74-.11.18-2.15 3.17 1.06 2.88 2.73-.25 8.24-2.44 9.65-3.03.84-.35 3.96-1.52 4.6-1.86.04-.02.26-.11.39-.23.2-.21.34-.66.54-.87a.6.6 0 0 1 .28-.18l3.18-1.04z" opacity=".2"/><path d="M5.73 18.2c0-.81.69-1.81.75-1.9v-.02l.04-.01c.03 0 .05 0 .05.04v.04c-.08.18-.55 1.16-.55 1.7 0 .4.39.7 1.1.7.97 0 2.47-.56 4.18-2.07.72-.64 2.9-1.44 5.83-2.37 4.15-1.31 9.08-2.7 9.08-2.7l.06-.02V12l-.04.01-3.18 1.04a.8.8 0 0 0-.26.17c-.18.2-.32.65-.54.88-.14.12-.36.22-.38.23-.66.35-3.78 1.51-4.62 1.86-1.41.6-6.91 2.79-9.66 3.04-.15.02-.3.02-.42.02-1.08 0-1.44-.48-1.44-1.06m.1 0c0 .53.29.95 1.34.95h.4c2.73-.26 8.23-2.45 9.65-3.04.84-.35 3.96-1.5 4.59-1.85.04-.03.24-.11.37-.22.2-.2.34-.65.54-.87a.65.65 0 0 1 .3-.2l3.15-1.03v-.22c-.59.16-5.13 1.46-9.01 2.68-2.93.93-5.1 1.75-5.8 2.36-1.71 1.52-3.24 2.08-4.24 2.08-.73 0-1.2-.31-1.2-.8 0-.28.12-.66.25-1-.18.35-.34.79-.34 1.16"/></svg>
