<svg xmlns="http://www.w3.org/2000/svg" viewBox="4 4 24 24" fill="currentColor"><path d="M17.08 14.42H27.9l-.06-.38a12 12 0 0 0-10.37-9.97l-.39-.04v2.19l.35.04a9.82 9.82 0 0 1 7.54 5.72l.14.33h-8.03v-.84c.04-.32.24-.61.52-.76l.1-.04 1.88-.74V7.7a.49.49 0 0 0-.28-.37l-.07-.02-.37-.1a12.07 12.07 0 0 0-5.7 0l-.37.1-.07.02a.47.47 0 0 0-.28.37v2.23l1.88.74.1.04c.3.16.51.5.5.86v.74H6.9l.13-.33a9.81 9.81 0 0 1 7.54-5.72l.35-.04v-2.2l-.38.05a12 12 0 0 0-10.37 9.97l-.06.38h10.81v1.56H4v.38l.03.39a12 12 0 0 0 11.59 11.22h.77a12 12 0 0 0 11.58-11.22l.02-.39.01-.38H17.08Zm8.5 3.72-.08.34-.1.33a9.83 9.83 0 0 1-9.05 6.98h-.7a9.82 9.82 0 0 1-9.05-6.98l-.1-.33-.09-.34h8.5v1.15l-.01.1a.98.98 0 0 1-.73.84L9.5 21.34l-.07.02a.48.48 0 0 0-.3.38V22.87h13.73V21.74a.47.47 0 0 0-.31-.38l-.07-.02-4.67-1.11-.1-.04a.96.96 0 0 1-.63-.8v-1.25z"/></svg>
