<svg xmlns="http://www.w3.org/2000/svg" fill-rule="evenodd" stroke-linejoin="round" stroke-miterlimit="2" clip-rule="evenodd" viewBox="4 9.6 24 12.7" fill="currentColor"><g transform="matrix(.11183 0 0 .09845 -110.4 -196.81)"><clipPath id="a"><path d="M1022.76 2060.43h214.96v201.53h-214.96z"/></clipPath><g clip-path="url(#a)" transform="translate(-.16 33.64)"><path fill-rule="nonzero" d="m1023.11 2140.69 11.02-15.88c4.27-6.17 10.58-9.73 17.24-9.73h7.19c6.65 0 12.97-3.56 17.24-9.73l22.03-31.77c4.28-6.17 10.6-9.73 17.25-9.73h74.05l-11.01 15.88c-4.28 6.17-10.6 9.73-17.24 9.73h-7.2c-6.65 0-12.96 3.56-17.24 9.73l-22.03 31.77c-4.28 6.17-10.6 9.73-17.25 9.73zM1072.14 2191.93l11.02-15.88c4.27-6.17 10.58-9.73 17.24-9.73h7.19c6.65 0 12.96-3.56 17.24-9.73l22.03-31.77c4.28-6.17 10.6-9.73 17.25-9.73h74.05l-11.01 15.88c-4.28 6.17-10.6 9.73-17.24 9.73h-7.2c-6.65 0-12.96 3.56-17.24 9.73l-22.03 31.77c-4.28 6.17-10.6 9.73-17.25 9.73z"/></g></g></svg>
